# xmcd
#
# Track frame offsets: 
#        150
#        10082
#        20965
#        32705
#        45364
#        57462
#        67352
#        77650
#        88140
#        100600
#        112450
#        122092
#        133172
#        141490
#        149042
#        158920
#        168477
#        177387
#        185590
#        197547
#
# Disc length: 2762 seconds
#
# Revision: 5
# Processed by: cddbd v1.5.2PL0 Copyright (c) Steve Scherf et al.
# Submitted via: ExactAudioCopy v0.95b4
#
DISCID=340ac814
DTITLE=Cash, Johnny - The Man In Black CD1
DYEAR=2001
DGENRE=Country
TTITLE0=Hey Porter
TTITLE1=Cry! Cry! Cry!
TTITLE2=So Doggone Lonesome
TTITLE3=Folsom Prison Blues
TTITLE4=I Walk The Line
TTITLE5=Get Rhythm
TTITLE6=There You Go
TTITLE7=Train Of Love
TTITLE8=Next In Line
TTITLE9=Home Of The Blues
TTITLE10=Ballad Of A Teenage Queen
TTITLE11=Big River
TTITLE12=Guess Things Happen That Way
TTITLE13=Come In Stranger
TTITLE14=The Ways Of A Woman In Love
TTITLE15=Rock Island Line
TTITLE16=Two Timin' Woman
TTITLE17=The Wreck Of The Old '97
TTITLE18=You're The Nearest Thing To Heaven
TTITLE19=Straight A's In Love
EXTD=Mike YEAR: 2001
EXTT0=
EXTT1=
EXTT2=
EXTT3=
EXTT4=
EXTT5=
EXTT6=
EXTT7=
EXTT8=
EXTT9=
EXTT10=
EXTT11=
EXTT12=
EXTT13=
EXTT14=
EXTT15=
EXTT16=
EXTT17=
EXTT18=
EXTT19=
PLAYORDER=
